<?xml version="1.0" encoding="utf-8"?>
<svg width="20px" height="16px" viewBox="0 0 20 16" version="1.1" xmlns:xlink="http://www.w3.org/1999/xlink" xmlns="http://www.w3.org/2000/svg">
  <desc>Created with Lunacy</desc>
  <g id="bars">
    <path d="M18.5532 2.38298L0.510638 2.38298C0.228638 2.38298 0 2.15434 0 1.87234L0 0.510638C0 0.228638 0.228638 0 0.510638 0L18.5532 0C18.8352 0 19.0638 0.228638 19.0638 0.510638L19.0638 1.87234C19.0638 2.15434 18.8352 2.38298 18.5532 2.38298ZM18.5532 9.19149L0.510638 9.19149C0.228638 9.19149 0 8.96285 0 8.68085L0 7.31915C0 7.03715 0.228638 6.80851 0.510638 6.80851L18.5532 6.80851C18.8352 6.80851 19.0638 7.03715 19.0638 7.31915L19.0638 8.68085C19.0638 8.96285 18.8352 9.19149 18.5532 9.19149ZM0.510638 16L18.5532 16C18.8352 16 19.0638 15.7714 19.0638 15.4894L19.0638 14.1277C19.0638 13.8457 18.8352 13.617 18.5532 13.617L0.510638 13.617C0.228638 13.617 0 13.8457 0 14.1277L0 15.4894C0 15.7714 0.228638 16 0.510638 16Z" id="Shape" fill="#000000" fill-rule="evenodd" stroke="none" />
  </g>
</svg>