<?xml version="1.0" encoding="utf-8"?>
<svg width="268px" height="61px" viewBox="0 0 268 61" version="1.1" xmlns:xlink="http://www.w3.org/1999/xlink" xmlns="http://www.w3.org/2000/svg">
  <desc>Created with Lunacy</desc>
  <defs>
    <radialGradient gradientUnits="objectBoundingBox" cx="25.97053%" cy="20.61213%" fx="25.97053%" fy="20.61213%" r="67.55015%" gradientTransform="translate(0.2597053,0.2061213),scale(1,0),translate(-0.2597053,-0.2061213)" id="gradient_1">
      <stop offset="0%" stop-color="#4A63AB" />
      <stop offset="100%" stop-color="#BF57A8" />
    </radialGradient>
    <linearGradient x1="-1.024046E-05" y1="0.499931574" x2="0.9999977" y2="0.499931574" id="gradient_2">
      <stop offset="0" stop-color="#363F9A" />
      <stop offset="1" stop-color="#BF57A8" />
    </linearGradient>
    <linearGradient x1="-0.491681725" y1="0.7175227" x2="0.51368" y2="0.508157969" id="gradient_3">
      <stop offset="0.0005008" stop-color="#B7268F" />
      <stop offset="1" stop-color="#25A8CC" stop-opacity="0.2" />
    </linearGradient>
    <linearGradient x1="0.394048572" y1="0.0199413449" x2="0.6164988" y2="0.98543185" id="gradient_4">
      <stop offset="0" stop-color="#363F9A" />
      <stop offset="1" stop-color="#BF57A8" />
    </linearGradient>
    <linearGradient x1="23.0823765" y1="146.2646" x2="-12.6253119" y2="-84.2303" id="gradient_5">
      <stop offset="0.0005008" stop-color="#B7268F" />
      <stop offset="1" stop-color="#25A8CC" />
    </linearGradient>
    <linearGradient x1="0.9146383" y1="2.90445" x2="0.08375887" y2="-1.91235" id="gradient_6">
      <stop offset="0.0005008" stop-color="#B7268F" />
      <stop offset="1" stop-color="#25A8CC" />
    </linearGradient>
    <linearGradient x1="0.9732123" y1="0.701668" x2="0.009119579" y2="0.304367721" id="gradient_7">
      <stop offset="0.0005008" stop-color="#B7268F" />
      <stop offset="1" stop-color="#25A8CC" />
    </linearGradient>
    <linearGradient x1="0.773108363" y1="0.305285364" x2="0.120780036" y2="0.894099057" id="gradient_8">
      <stop offset="0.0005008" stop-color="#B7268F" />
      <stop offset="1" stop-color="#25A8CC" />
    </linearGradient>
    <linearGradient x1="0.002291083" y1="0.380171031" x2="1.19796038" y2="0.636261463" id="gradient_9">
      <stop offset="0.0005008" stop-color="#B7268F" />
      <stop offset="0.999" stop-color="#25A8CC" stop-opacity="0" />
    </linearGradient>
    <linearGradient x1="0.948600769" y1="0.819145858" x2="-0.0194545146" y2="0.3660436" id="gradient_10">
      <stop offset="0.0005008" stop-color="#B7268F" />
      <stop offset="1" stop-color="#25A8CC" />
    </linearGradient>
    <linearGradient x1="0.5418497" y1="-0.225483537" x2="0.4645932" y2="0.7781094" id="gradient_11">
      <stop offset="0.0005008" stop-color="#B7268F" />
      <stop offset="0.999" stop-color="#25A8CC" stop-opacity="0" />
    </linearGradient>
    <linearGradient x1="0.9994881" y1="0.9394018" x2="0.0118348477" y2="0.03541082" id="gradient_12">
      <stop offset="0" stop-color="#B33798" />
      <stop offset="0.998" stop-color="#F249A2" />
    </linearGradient>
    <radialGradient gradientUnits="objectBoundingBox" cx="81.75725%" cy="20.85673%" fx="81.75725%" fy="20.85673%" r="53.13098%" gradientTransform="translate(0.8175725,0.2085673),scale(1,0.8918919),scale(1,0),translate(-0.8175725,-0.2085673)" id="gradient_13">
      <stop offset="0.204327%" stop-color="#F249A2" />
      <stop offset="100%" stop-color="#F249A2" stop-opacity="0" />
    </radialGradient>
    <linearGradient x1="0.645071268" y1="1.0109303" x2="0.367726415" y2="0.09189635" id="gradient_14">
      <stop offset="0" stop-color="#B33798" />
      <stop offset="1" stop-color="#F249A2" />
    </linearGradient>
    <linearGradient x1="0.639515" y1="0.99458915" x2="0.349875569" y2="0.0349638425" id="gradient_15">
      <stop offset="0" stop-color="#B33798" />
      <stop offset="1" stop-color="#F249A2" />
    </linearGradient>
  </defs>
  <g id="logo">
    <g id="Безымянный-1">
      <path d="M37.0246 59.1582C37.1206 59.1342 37.2106 59.1102 37.3066 59.0862C37.5166 59.0322 37.7326 58.9781 37.9426 58.9181C38.5666 58.744 39.1845 58.552 39.7905 58.3419C39.8205 58.3299 39.8505 58.3179 39.8805 58.3119C41.2845 57.8197 42.6404 57.2315 43.9424 56.5412C44.0624 56.4752 44.1884 56.4092 44.3083 56.3432C44.4403 56.2711 44.5663 56.2051 44.6983 56.1331C58.2578 48.5343 63.8796 31.8182 57.1599 17.2929C51.2801 4.59225 39.4245 -0.0594493 29.3269 0.000572599C18.2813 0.0665967 7.9737 8.84781 12.6595 19.2016C15.4314 3.98603 42.5744 0.516761 50.9261 18.9195C57.3699 33.1087 50.8901 48.3362 37.8646 52.5798C16.1214 59.6564 -1.12796 42.25 0.935965 22.5268C0.935965 22.5268 0.935965 22.5328 0.935965 22.5328L0.563979 24.1894C0.191993 26.0681 0 28.0068 0 29.9935C0 35.8637 1.68594 41.3377 4.59583 45.9594C4.61983 46.0014 4.64983 46.0434 4.67383 46.0854C4.73982 46.1875 4.80582 46.2895 4.87182 46.3915C7.20573 49.9808 10.2236 52.9399 13.6675 55.1667C13.7395 55.2148 13.8115 55.2628 13.8835 55.3048C13.9555 55.3528 14.0275 55.3948 14.0995 55.4428C17.5733 57.6216 21.5272 59.1042 25.763 59.6984C25.883 59.7164 26.003 59.7344 26.129 59.7464C26.177 59.7524 26.225 59.7584 26.273 59.7644C29.4409 60.1666 32.6988 60.0585 35.9147 59.4043C35.9387 59.3983 35.9627 59.3923 35.9927 59.3863C36.3346 59.3203 36.6826 59.2422 37.0246 59.1582Z" transform="translate(0 1)" id="Path" fill="url(#gradient_1)" stroke="none" />
      <path d="M4.66166 42.1472C4.68573 42.1833 4.70979 42.2255 4.73386 42.2617C4.79402 42.3521 4.85419 42.4486 4.92037 42.539C7.10434 45.8248 9.93206 48.5257 13.1509 50.5695C13.217 50.6117 13.2832 50.6539 13.3494 50.6961C13.4156 50.7383 13.4818 50.7805 13.554 50.8227C16.8089 52.8122 20.5029 54.1687 24.4738 54.7174C24.5881 54.7355 24.7024 54.7475 24.8107 54.7656C24.8528 54.7716 24.901 54.7777 24.9431 54.7837C27.9092 55.1514 30.9535 55.055 33.9677 54.4581C33.9918 54.4521 34.0159 54.4461 34.0399 54.4461C34.3648 54.3798 34.6897 54.3134 35.0086 54.2351C35.0988 54.217 35.1831 54.1929 35.2733 54.1687C35.4718 54.1205 35.6704 54.0663 35.8689 54.012C36.4525 53.8552 37.0301 53.6804 37.5956 53.4875C37.6257 53.4754 37.6558 53.4694 37.6799 53.4573C38.9915 53.0052 40.2609 52.4686 41.4762 51.8416C41.5906 51.7813 41.7049 51.721 41.8192 51.6607C41.9395 51.5944 42.0598 51.5341 42.1802 51.4678C54.8809 44.5105 60.7469 28.7932 54.4597 15.5056C48.9547 3.88188 37.8303 -0.766387 27.8069 0.101771C18.8785 0.873468 13.2712 5.86538 11.015 10.5679C10.9248 12.3766 11.2737 14.2817 12.1642 16.2531C14.9438 0.96993 42.1621 -2.51476 50.537 15.9698C56.9987 30.222 50.5009 45.5173 37.4392 49.7797C15.6356 56.8938 -1.66161 39.4101 0.408041 19.5992C-1.12013 29.2032 1.94223 37.9149 4.66166 42.1472Z" transform="translate(0 4)" id="Path" fill="url(#gradient_2)" fill-opacity="0.34" stroke="none" />
      <path d="M2.965 12.8142C2.14369 5.96635 8.40973 1.31937 11 0C3.39001 2.13084 -2.65204 11.0512 1.19029 17C1.40854 15.8207 2.2241 13.8942 2.965 12.8142Z" transform="translate(12 2)" id="Path" fill="url(#gradient_3)" fill-opacity="0.67" stroke="none" />
      <g id="Group" transform="translate(0 4)" opacity="0.34">
        <path d="M0.406339 19.5817C-0.128224 22.9454 -0.122217 26.3875 0.364295 29.7573C0.610554 31.4422 0.964927 33.109 1.45144 34.7458C1.93194 36.3765 2.52657 37.9772 3.25934 39.5177C3.62573 40.2879 4.02215 41.0401 4.47262 41.7622C4.58674 41.9427 4.69485 42.1232 4.81498 42.2977C4.9291 42.4783 5.05523 42.6528 5.17536 42.8273L5.35555 43.092L5.54174 43.3508C5.66788 43.5253 5.788 43.6938 5.92014 43.8623C6.94722 45.2162 8.10644 46.4739 9.36777 47.6112C11.8904 49.8918 14.8335 51.6971 17.9989 52.9367C19.5845 53.5505 21.2182 54.0259 22.888 54.3508C23.3024 54.429 23.7229 54.5073 24.1433 54.5674L24.4557 54.6156L24.774 54.6577L25.4047 54.7299C26.2515 54.8202 27.0984 54.8683 27.9453 54.8803C31.3449 54.9405 34.7445 54.3689 37.9459 53.2315C41.1472 52.0942 44.1384 50.3732 46.7451 48.1889C49.3519 46.0045 51.5562 43.3508 53.238 40.3902C54.9197 37.4356 56.0669 34.1681 56.5775 30.8043C56.8357 29.1254 56.9318 27.4164 56.8658 25.7135C56.7997 24.0105 56.5655 22.3196 56.169 20.6648C55.3822 17.3552 53.9227 14.214 52.0006 11.4099C51.0336 10.0138 49.9405 8.70201 48.7212 7.51054C48.1146 6.91481 47.4779 6.34916 46.8172 5.81962C46.1565 5.29008 45.4658 4.78461 44.757 4.32126C41.91 2.46185 38.6966 1.18012 35.3631 0.530234C33.6934 0.205288 31.9996 0.0367983 30.2998 0.0247633C28.6 0.0127283 26.9002 0.157148 25.2305 0.470059C23.5607 0.782969 21.921 1.27039 20.3653 1.95037C18.8037 2.62433 17.3261 3.49085 15.9867 4.53789C14.6473 5.58494 13.4401 6.80649 12.437 8.1845C11.9385 8.8705 11.488 9.59861 11.1096 10.3628C10.7312 11.121 10.4189 11.9214 10.1966 12.7458C10.4189 11.9214 10.7252 11.1271 11.1096 10.3628C11.488 9.59861 11.9325 8.8705 12.437 8.1845C13.4341 6.80649 14.6413 5.57892 15.9807 4.53187C17.3201 3.48483 18.8037 2.61831 20.3593 1.93833C21.921 1.25835 23.5607 0.764916 25.2305 0.452006C26.9002 0.133078 28.606 -0.0113417 30.3058 0.000693304C32.0056 0.00671081 33.7054 0.181218 35.3751 0.500146C38.7147 1.15004 41.9341 2.43177 44.7871 4.29117C45.5018 4.75452 46.1925 5.25398 46.8532 5.78953C47.5199 6.31907 48.1566 6.88472 48.7632 7.48647C49.9825 8.67794 51.0757 9.98975 52.0487 11.3918C53.0157 12.7939 53.8566 14.2802 54.5653 15.8327C55.2741 17.3853 55.8327 18.998 56.2291 20.6588C56.6255 22.3136 56.8598 24.0105 56.9258 25.7135C56.9919 27.4164 56.8958 29.1254 56.6435 30.8103C56.133 34.1801 54.9858 37.4536 53.304 40.4143C51.6222 43.3809 49.4059 46.0406 46.7992 48.225C44.1924 50.4154 41.1893 52.1303 37.9819 53.2737C34.7745 54.411 31.3629 54.9826 27.9633 54.9225C27.1104 54.9104 26.2636 54.8563 25.4167 54.766L24.78 54.6938L24.4617 54.6517L24.1433 54.6035C23.7229 54.5434 23.3024 54.4651 22.888 54.3869C21.2182 54.062 19.5785 53.5806 17.9929 52.9668C14.8275 51.7212 11.8784 49.9159 9.35576 47.6292C8.09443 46.4859 6.93521 45.2283 5.90813 43.8743C5.77599 43.7058 5.65586 43.5313 5.52973 43.3628L5.34354 43.1041L5.16335 42.8393C5.04322 42.6648 4.92309 42.4903 4.80297 42.3098C4.68284 42.1353 4.57473 41.9487 4.46061 41.7682C4.01013 41.0461 3.61371 40.2879 3.24733 39.5177C2.52056 37.9772 1.92594 36.3765 1.44543 34.7397C0.964927 33.103 0.610554 31.4361 0.364295 29.7512C-0.128224 26.3875 -0.128224 22.9454 0.406339 19.5817Z" transform="translate(0.05014155 0.05346425)" id="Path" fill="url(#gradient_4)" stroke="none" />
      </g>
      <path d="M0 0.09C0.33121 0.05 0.66242 0.03 1 0.01C0.66242 0.03 0.33121 0.06 0 0.09Z" transform="translate(28 0.95)" id="Path" fill="url(#gradient_5)" stroke="none" />
      <path d="M0 0.11988C0.652482 0.0659341 1.31915 0.023976 2 0C1.31206 0.017982 0.64539 0.0599401 0 0.11988Z" transform="translate(27 0.94006)" id="Path" fill="url(#gradient_6)" stroke="none" />
      <path d="M34.8801 27.3209C29.4745 38.5214 12.7852 37.507 5.8525 31.9857C-5.61309 22.8383 -0.0196748 0.7714 20.7663 0C4.36173 0.485921 -1.18926 19.2303 10.0036 25.8814C17.7908 30.5098 28.8807 27.4302 26.7354 19.8013L26.7899 17.8515L34.1832 19.4854C37.1041 21.8057 35.8558 24.5755 34.8801 27.3209Z" transform="translate(8 1)" id="Path" fill="url(#gradient_7)" stroke="none" />
      <path d="M24.1648 19.2804C26.2912 26.7893 15.2991 29.8204 7.58056 25.2648C-2.91899 19.0652 1.44781 2.21202 15.7195 0.0179353C15.7135 0.00597843 15.7075 0 15.7015 0C13.6352 0.263051 11.7371 0.753282 10.0192 1.42884C8.2473 2.25387 6.21106 3.56314 4.12676 5.63766C-1.84381 13.4814 -1.38731 22.712 5.83264 28.3198C13.3289 34.1488 32.1596 30.3166 28.5436 18.3179L24.2189 17.3673L24.1648 19.2804Z" transform="translate(11 1)" id="Path" fill="url(#gradient_8)" fill-opacity="0.21" stroke="none" />
      <path d="M1.06633 0C0.193561 1.846 0.18144 2.51245 0.035978 4.55898C-0.000387393 5.11337 -0.00644829 5.66186 0.00567351 6.21625C2.02395 7.52556 4.29679 8.79948 8 9C6.83631 6.6114 6.59387 2.61271 7.59392 1.3152C5.79989 1.22674 1.32089 0.176933 1.06633 0Z" transform="translate(17 27)" id="Path" fill="url(#gradient_9)" stroke="none" />
      <g id="Group" transform="translate(11 7)" opacity="0.26">
        <path d="M4.12905 0C2.67905 1.88235 1.51067 3.98235 0.79765 6.23529C0.438146 7.35882 0.198476 8.52353 0.090625 9.69412C0.0366994 10.2824 0.0247159 10.8706 0.0426911 11.4588C0.0486828 11.7529 0.0726498 12.0471 0.0966167 12.3412C0.126575 12.6353 0.162526 12.9294 0.21046 13.2176C0.396204 14.3824 0.737732 15.5235 1.22306 16.6C1.70839 17.6765 2.33753 18.6941 3.08649 19.6118C3.45798 20.0765 3.85943 20.5118 4.28484 20.9294C4.71025 21.3471 5.15963 21.7412 5.62699 22.1059C6.54972 22.8588 7.61625 23.4235 8.7367 23.8471C9.85715 24.2706 11.0315 24.5529 12.2179 24.7176C13.4043 24.8882 14.6086 24.9412 15.8069 24.9C17.0053 24.8529 18.2036 24.7118 19.378 24.4588C20.5524 24.2118 21.7028 23.8529 22.7993 23.3765C23.8958 22.9 24.9384 22.2941 25.8611 21.5353C26.7778 20.7765 27.5687 19.8588 28.108 18.8059C28.3776 18.2824 28.5873 17.7235 28.7251 17.1529C28.8629 16.5824 28.9348 15.9882 28.9408 15.4C28.9528 14.2176 28.7131 13.0471 28.3177 11.9294C28.7191 13.0412 28.9588 14.2118 28.9528 15.4C28.9468 15.9882 28.8809 16.5824 28.7431 17.1588C28.6053 17.7353 28.4016 18.2941 28.1319 18.8235C27.5927 19.8824 26.8018 20.8059 25.8791 21.5647C24.9563 22.3235 23.9138 22.9353 22.8113 23.4176C21.7148 23.9 20.5584 24.2588 19.384 24.5059C18.2096 24.7588 17.0113 24.9059 15.8069 24.9529C14.6026 25 13.3983 24.9412 12.2059 24.7765C11.0136 24.6059 9.83918 24.3294 8.71273 23.9059C7.59228 23.4824 6.51976 22.9059 5.59104 22.1529C5.12368 21.7824 4.6743 21.3882 4.24889 20.9706C3.82348 20.5529 3.42203 20.1118 3.05054 19.6471C2.30158 18.7176 1.67843 17.7 1.18711 16.6176C0.701782 15.5353 0.360253 14.3941 0.174509 13.2235C0.126575 12.9294 0.090625 12.6412 0.0606663 12.3471C0.0366994 12.0529 0.0127324 11.7588 0.0067407 11.4647C-0.0112345 10.8765 0.0067407 10.2824 0.0606663 9.69412C0.168518 8.51765 0.408187 7.35294 0.773683 6.22941C1.49269 3.97059 2.67306 1.87647 4.12905 0Z" transform="translate(0.005242769 0.005882353)" id="Path" fill="url(#gradient_10)" stroke="none" />
      </g>
      <path d="M0.200177 4.49407C2.35502 3.78854 5.51664 4.7253 7.0003 6.56917C7.58905 7.29842 7.88343 8.12846 7.99529 9C8.92553 6.40316 9.99117 3.78854 7.2358 1.59486L0.052988 0L0 1.90316C0.317928 3.04743 0.28849 3.74704 0.200177 4.49407Z" transform="translate(35 19)" id="Path" fill="url(#gradient_11)" stroke="none" />
      <path d="M0 0.09C0.33121 0.05 0.66242 0.03 1 0.01C0.66242 0.03 0.33121 0.06 0 0.09Z" transform="translate(28 0.95)" id="Path" fill="#FFFFFF" stroke="none" />
      <path d="M29.4923 16.1256C33.2018 9.54829 28.2739 -2.00869 14.8292 0.300294C0.0936924 2.82631 -5.67867 22.8958 6.92161 33.4098C16.5905 41.4822 34.6676 35.2847 32.8761 21.3826C28.5815 32.1317 10.4803 33.3194 9.30414 20.213C7.97113 5.37042 32.5323 6.14209 29.4923 16.1256Z" transform="translate(13 12)" id="Path" fill="url(#gradient_12)" stroke="none" />
      <path d="M29.4923 16.1256C33.2018 9.54829 28.2739 -2.00869 14.8292 0.300294C0.0936924 2.82631 -5.67867 22.8958 6.92161 33.4098C16.5905 41.4822 34.6676 35.2847 32.8761 21.3826C28.5815 32.1317 10.4803 33.3194 9.30414 20.213C7.97113 5.37042 32.5323 6.14209 29.4923 16.1256Z" transform="translate(13 12)" id="Path" fill="url(#gradient_13)" stroke="none" />
      <path d="M28 18.2987C27.988 17.9403 27.9701 17.582 27.9341 17.2176C23.6711 27.8669 5.7031 29.0435 4.53557 16.059C3.21835 1.36024 27.5988 2.12474 24.5812 12.0155C25.5751 10.3073 26.0062 7.94808 25.647 5.72625C24.4854 1.83805 20.5338 -0.897429 12.7382 0.273213C0.296522 2.13668 -5.08012 18.6093 6.07432 26.2184C15.1571 32.4002 27.6946 27.628 28 18.2987Z" transform="translate(18 16)" id="Path" fill="url(#gradient_14)" fill-opacity="0.33" stroke="none" />
      <g id="Group" transform="translate(18 16)" opacity="0.45">
        <path d="M25.5434 5.75297C25.3111 4.97884 24.9596 4.23449 24.4949 3.5735C24.0303 2.91252 23.4464 2.3349 22.7911 1.86447C22.1358 1.39404 21.403 1.02484 20.6405 0.756872C20.2592 0.619911 19.872 0.506769 19.4788 0.417447C19.0856 0.328124 18.6864 0.250712 18.2873 0.197118C16.6847 -0.0172555 15.0524 0.036338 13.4498 0.226892C13.0507 0.274531 12.6456 0.334079 12.2524 0.405537C11.8532 0.476995 11.46 0.566317 11.0668 0.667549C10.2864 0.875968 9.52387 1.14989 8.78515 1.48336C7.31366 2.1503 5.95536 3.0733 4.7877 4.18685C3.61408 5.3004 2.62515 6.59856 1.85664 8.02176C1.08813 9.44496 0.545998 10.9873 0.271955 12.5772C-0.00804461 14.1671 -0.0199595 15.8047 0.265998 17.3947C0.545998 18.9846 1.12387 20.5209 1.97579 21.8965C2.82174 23.2721 3.92387 24.4869 5.19281 25.4873C6.46174 26.4877 7.87962 27.3035 9.38685 27.8811C10.8941 28.4587 12.4966 28.8041 14.1111 28.8994C15.7256 28.9947 17.352 28.8398 18.9188 28.4289C20.4796 28.0181 21.9809 27.3511 23.3094 26.4222C24.632 25.4992 25.7817 24.3022 26.586 22.8969C26.9911 22.1942 27.3068 21.4439 27.5273 20.6698C27.7477 19.8897 27.8668 19.0858 27.8966 18.276C27.8728 19.0858 27.7537 19.8897 27.5332 20.6698C27.3188 21.4499 27.003 22.2002 26.5979 22.9029C25.7937 24.3142 24.6498 25.5111 23.3273 26.44C21.9988 27.369 20.4975 28.0419 18.9307 28.4528C17.3639 28.8636 15.7315 29.0244 14.1111 28.9292C12.4907 28.8339 10.8881 28.4885 9.37493 27.9109C7.86174 27.3333 6.43791 26.5174 5.16302 25.5111C3.89408 24.5047 2.78004 23.2959 1.92813 21.9084C1.07621 20.5269 0.492381 18.9846 0.206423 17.3887C-0.079534 15.7928 -0.0616616 14.1433 0.218338 12.5474C0.498338 10.9515 1.04642 9.40328 1.81493 7.97412C2.58344 6.55092 3.57834 5.24086 4.75791 4.1273C5.93749 3.01375 7.29579 2.09075 8.77323 1.42381C9.51196 1.09034 10.2745 0.81642 11.0609 0.608001C11.4541 0.506769 11.8473 0.417447 12.2464 0.345989C12.6456 0.274531 13.0447 0.220938 13.4498 0.167344C15.0583 -0.0232103 16.6907 -0.0768037 18.2992 0.143525C18.6983 0.197118 19.0975 0.274531 19.4966 0.363853C19.8898 0.459131 20.283 0.572272 20.6643 0.709233C21.4268 0.983155 22.1596 1.35235 22.8149 1.82279C23.4703 2.29917 24.0541 2.87679 24.5128 3.54373C24.9656 4.24044 25.3171 4.97884 25.5434 5.75297Z" transform="translate(0.05570418 0.00534582)" id="Path" fill="url(#gradient_15)" stroke="none" />
      </g>
    </g>
    <path d="M28.17 10.5L28.17 0L20.94 0L20.94 0.54L22.59 0.54L22.59 21.96L20.94 21.96L20.94 22.5L27.78 22.5L27.99 20.73C28.19 21.47 28.565 22 29.115 22.32C29.665 22.64 30.46 22.8 31.5 22.8C33.56 22.8 35.105 22.2 36.135 21C37.165 19.8 37.68 17.93 37.68 15.39C37.68 10.41 35.81 7.92 32.07 7.92C30.23 7.92 28.93 8.77999 28.17 10.5ZM10.59 15.45L12.78 21.93L10.65 21.93L10.65 22.5L20.46 22.5L20.46 21.93L19.08 21.93L11.52 1.32L9.06 1.32L1.41 21.93L0 21.93L0 22.5L4.59 22.5L4.59 21.93L2.34 21.93L4.65 15.45L10.59 15.45ZM137.58 1.5L126.78 1.5L126.78 2.16L128.55 2.16L128.55 21.84L126.78 21.84L126.78 22.5L142.68 22.5L143.25 15.48L142.62 15.48C141.58 17.64 140.555 19.24 139.545 20.28C138.535 21.32 137.18 21.84 135.48 21.84L134.4 21.84L134.4 2.16L137.58 2.16L137.58 1.5ZM53.1 8.76L53.1 18.21C53.1 19.95 53.54 21.15 54.42 21.81C55.3 22.47 56.57 22.8 58.23 22.8C59.89 22.8 61.08 22.395 61.8 21.585C62.52 20.775 62.96 19.68 63.12 18.3L62.61 18.24C62.47 19.28 62.175 20.1 61.725 20.7C61.275 21.3 60.75 21.6 60.15 21.6C59.55 21.6 59.155 21.38 58.965 20.94C58.775 20.5 58.68 19.81 58.68 18.87L58.68 8.76L62.58 8.76L62.58 8.22L58.68 8.22L58.68 2.97L53.1 4.35L53.1 8.22L51.45 8.22L51.45 8.76L53.1 8.76ZM110.73 18.21L110.73 8.76L109.08 8.76L109.08 8.22L110.73 8.22L110.73 4.35L116.31 2.97L116.31 8.22L120.21 8.22L120.21 8.76L116.31 8.76L116.31 18.87C116.31 19.81 116.405 20.5 116.595 20.94C116.785 21.38 117.18 21.6 117.78 21.6C118.38 21.6 118.905 21.3 119.355 20.7C119.805 20.1 120.1 19.28 120.24 18.24L120.75 18.3C120.59 19.68 120.15 20.775 119.43 21.585C118.71 22.395 117.52 22.8 115.86 22.8C114.2 22.8 112.93 22.47 112.05 21.81C111.17 21.15 110.73 19.95 110.73 18.21ZM172.65 6.66L173.49 6.15C173.61 5.53 173.37 5.22 172.77 5.22C171.91 5.22 171.48 5.87999 171.48 7.2C171.48 7.72 171.55 8.32 171.69 9C173.21 10.02 173.97 11.325 173.97 12.915C173.97 14.505 173.42 15.74 172.32 16.62C171.22 17.5 169.73 17.94 167.85 17.94C167.07 17.94 166.26 17.86 165.42 17.7C164.54 18.26 164.1 18.68 164.1 18.96C164.1 19.24 164.74 19.38 166.02 19.38L169.08 19.38C173.62 19.38 175.89 21.01 175.89 24.27C175.89 26.03 175.205 27.425 173.835 28.455C172.465 29.485 170.33 30 167.43 30C162.49 30 160.02 28.93 160.02 26.79C160.02 25.63 160.79 24.83 162.33 24.39L164.13 25.2C163.97 25.78 163.89 26.33 163.89 26.85C163.89 28.57 165.17 29.43 167.73 29.43C169.29 29.43 170.49 29.14 171.33 28.56C172.17 27.98 172.59 27.26 172.59 26.4C172.59 25.54 172.335 24.965 171.825 24.675C171.315 24.385 170.3 24.24 168.78 24.24L165.87 24.24C164.25 24.24 163.09 23.97 162.39 23.43C161.69 22.89 161.34 22.225 161.34 21.435C161.34 20.645 161.59 19.985 162.09 19.455C162.59 18.925 163.48 18.27 164.76 17.49C162.44 16.83 161.28 15.31 161.28 12.93C161.28 11.43 161.82 10.22 162.9 9.3C163.98 8.38 165.6 7.92 167.76 7.92C169.06 7.92 170.17 8.17 171.09 8.67C170.97 8.13 170.91 7.64 170.91 7.2C170.91 6.07999 171.21 5.27 171.81 4.77C172.41 4.27 173.08 4.02 173.82 4.02C174.56 4.02 175.155 4.215 175.605 4.605C176.055 4.995 176.28 5.53 176.28 6.21C176.28 6.89 176.1 7.395 175.74 7.725C175.38 8.055 174.945 8.22 174.435 8.22C173.925 8.22 173.505 8.085 173.175 7.815C172.845 7.545 172.67 7.16 172.65 6.66ZM4.92 14.79L7.74 6.93L10.35 14.79L4.92 14.79ZM39.27 22.8L39.27 17.43L39.63 17.43C40.15 19.17 40.85 20.39 41.73 21.09C42.61 21.79 43.71 22.14 45.03 22.14C47.07 22.14 48.09 21.49 48.09 20.19C48.09 19.63 47.84 19.21 47.34 18.93C46.56 18.49 45.56 18.15 44.34 17.91C42.98 17.55 41.84 17.07 40.92 16.47C39.82 15.75 39.27 14.61 39.27 13.05C39.27 11.49 39.75 10.245 40.71 9.315C41.67 8.385 42.95 7.92 44.55 7.92C45.53 7.92 46.54 8.15 47.58 8.61C47.96 8.77 48.25 8.85 48.45 8.85C48.65 8.85 48.82 8.78 48.96 8.64C49.1 8.5 49.27 8.24 49.47 7.86L49.8 7.86L49.8 12.45L49.44 12.45C48.42 9.84999 46.84 8.55 44.7 8.55C43.76 8.55 43.06 8.715 42.6 9.045C42.14 9.375 41.91 9.79 41.91 10.29C41.91 10.59 41.98 10.825 42.12 10.995C42.26 11.165 42.37 11.29 42.45 11.37C42.53 11.45 42.66 11.535 42.84 11.625C43.02 11.715 43.17 11.785 43.29 11.835C43.41 11.885 43.595 11.95 43.845 12.03C44.095 12.11 44.28 12.16 44.4 12.18C45.76 12.52 46.74 12.815 47.34 13.065C47.94 13.315 48.51 13.62 49.05 13.98C50.15 14.74 50.7 15.965 50.7 17.655C50.7 19.345 50.2 20.625 49.2 21.495C48.2 22.365 46.83 22.8 45.09 22.8C43.85 22.8 42.65 22.51 41.49 21.93C41.25 21.77 41.06 21.69 40.92 21.69C40.48 21.69 40.05 22.06 39.63 22.8L39.27 22.8ZM73.44 9.06C72.7 9.06 72.05 9.54 71.49 10.5C70.93 11.46 70.65 12.6 70.65 13.92L70.65 21.96L72.78 21.96L72.78 22.5L63.42 22.5L63.42 21.96L65.07 21.96L65.07 8.76L63.42 8.76L63.42 8.22L70.65 8.22L70.65 11.1C70.91 10.08 71.41 9.295 72.15 8.745C72.89 8.195 73.73 7.92 74.67 7.92C75.61 7.92 76.375 8.185 76.965 8.715C77.555 9.245 77.85 9.995 77.85 10.965C77.85 11.935 77.63 12.68 77.19 13.2C76.75 13.72 76.075 13.98 75.165 13.98C74.255 13.98 73.585 13.68 73.155 13.08C72.725 12.48 72.67 11.65 72.99 10.59L74.07 10.59C74.57 9.56999 74.36 9.06 73.44 9.06ZM86.34 15.45L85.47 15.45C83.13 15.45 81.395 15.715 80.265 16.245C79.135 16.775 78.57 17.75 78.57 19.17C78.57 21.59 80.05 22.8 83.01 22.8C84.01 22.8 84.77 22.62 85.29 22.26C85.81 21.9 86.2 21.34 86.46 20.58C86.82 22.06 88.2 22.8 90.6 22.8C91.92 22.8 92.87 22.47 93.45 21.81C94.03 21.15 94.36 19.94 94.44 18.18L93.99 18.15C93.87 20.21 93.47 21.24 92.79 21.24C92.21 21.24 91.92 20.72 91.92 19.68L91.92 13.59C91.92 11.43 91.465 9.945 90.555 9.135C89.645 8.325 88 7.92 85.62 7.92C81.44 7.92 79.35 9.14999 79.35 11.61C79.35 13.27 80.21 14.1 81.93 14.1C82.69 14.1 83.32 13.885 83.82 13.455C84.32 13.025 84.57 12.515 84.57 11.925C84.57 11.335 84.49 10.83 84.33 10.41L83.58 10.41C83.46 10.07 83.4 9.735 83.4 9.405C83.4 9.075 83.545 8.815 83.835 8.625C84.125 8.435 84.45 8.34 84.81 8.34C85.41 8.34 85.815 8.665 86.025 9.315C86.235 9.965 86.34 11.24 86.34 13.14L86.34 15.45ZM101.25 9.9C101.63 8.93999 102.26 8.46 103.14 8.46C104.1 8.46 104.58 8.93999 104.58 9.9C104.58 10.22 104.51 10.58 104.37 10.98L103.38 10.98C103.28 11.34 103.23 11.7 103.23 12.06C103.23 12.88 103.47 13.5 103.95 13.92C104.43 14.34 105.065 14.55 105.855 14.55C106.645 14.55 107.265 14.31 107.715 13.83C108.165 13.35 108.39 12.59 108.39 11.55C108.39 10.51 107.92 9.645 106.98 8.955C106.04 8.265 104.68 7.92 102.9 7.92C100.38 7.92 98.415 8.56999 97.005 9.87C95.595 11.17 94.89 13.025 94.89 15.435C94.89 17.845 95.51 19.675 96.75 20.925C97.99 22.175 99.77 22.8 102.09 22.8C103.91 22.8 105.34 22.41 106.38 21.63C107.4 20.87 108.1 19.63 108.48 17.91L107.94 17.85C107.74 18.87 107.29 19.78 106.59 20.58C105.89 21.38 104.95 21.78 103.77 21.78C102.59 21.78 101.78 21.35 101.34 20.49C100.9 19.63 100.68 18.21 100.68 16.23L100.68 14.67C100.68 12.45 100.87 10.86 101.25 9.9ZM146.49 20.88C147.77 22.16 149.66 22.8 152.16 22.8C157.24 22.8 159.78 20.25 159.78 15.15C159.78 12.71 159.17 10.895 157.95 9.705C156.73 8.51499 154.88 7.92 152.4 7.92C149.92 7.92 147.995 8.56499 146.625 9.855C145.255 11.145 144.57 12.985 144.57 15.375C144.57 17.765 145.21 19.6 146.49 20.88ZM178.44 20.88C179.72 22.16 181.61 22.8 184.11 22.8C189.19 22.8 191.73 20.25 191.73 15.15C191.73 12.71 191.12 10.895 189.9 9.705C188.68 8.51499 186.83 7.92 184.35 7.92C181.87 7.92 179.945 8.56499 178.575 9.855C177.205 11.145 176.52 12.985 176.52 15.375C176.52 17.765 177.16 19.6 178.44 20.88ZM154.02 16.59L154.02 14.04C154.02 12.1 153.915 10.685 153.705 9.795C153.495 8.905 153.01 8.46 152.25 8.46C151.81 8.46 151.455 8.585 151.185 8.835C150.915 9.085 150.72 9.5 150.6 10.08C150.42 10.98 150.33 12.35 150.33 14.19L150.33 16.53C150.33 18.71 150.395 20.02 150.525 20.46C150.655 20.9 150.79 21.26 150.93 21.54C151.15 22.02 151.58 22.26 152.22 22.26C153 22.26 153.51 21.81 153.75 20.91C153.93 20.27 154.02 18.83 154.02 16.59ZM166.635 16.62C166.405 16.14 166.29 15.23 166.29 13.89L166.29 12.27C166.29 10.75 166.41 9.735 166.65 9.225C166.89 8.715 167.245 8.46 167.715 8.46C168.185 8.46 168.52 8.705 168.72 9.195C168.92 9.685 169.02 10.71 169.02 12.27L169.02 13.74C169.02 15.2 168.915 16.165 168.705 16.635C168.495 17.105 168.155 17.34 167.685 17.34C167.215 17.34 166.865 17.1 166.635 16.62ZM185.97 16.59L185.97 14.04C185.97 12.1 185.865 10.685 185.655 9.795C185.445 8.905 184.96 8.46 184.2 8.46C183.76 8.46 183.405 8.585 183.135 8.835C182.865 9.085 182.67 9.5 182.55 10.08C182.37 10.98 182.28 12.35 182.28 14.19L182.28 16.53C182.28 18.71 182.345 20.02 182.475 20.46C182.605 20.9 182.74 21.26 182.88 21.54C183.1 22.02 183.53 22.26 184.17 22.26C184.95 22.26 185.46 21.81 185.7 20.91C185.88 20.27 185.97 18.83 185.97 16.59ZM31.89 14.43C31.89 12.37 31.79 10.985 31.59 10.275C31.39 9.565 31 9.21 30.42 9.21C29.84 9.21 29.32 9.57 28.86 10.29C28.4 11.01 28.17 12 28.17 13.26L28.17 18.84C28.17 19.7 28.345 20.43 28.695 21.03C29.045 21.63 29.545 21.93 30.195 21.93C30.845 21.93 31.29 21.49 31.53 20.61C31.77 19.73 31.89 18.19 31.89 15.99L31.89 14.43ZM84.27 19.14C84.27 20.18 84.325 20.85 84.435 21.15C84.545 21.45 84.755 21.6 85.065 21.6C85.375 21.6 85.665 21.345 85.935 20.835C86.205 20.325 86.34 19.62 86.34 18.72L86.34 15.93L86.13 15.93C84.89 15.93 84.27 16.84 84.27 18.66L84.27 19.14Z" transform="translate(76.18 18.5)" id="AbstractLogo" fill="#212212" fill-rule="evenodd" stroke="none" />
  </g>
</svg>