<?xml version="1.0" encoding="utf-8"?>
<svg width="28px" height="28px" viewBox="0 0 28 28" version="1.1" xmlns:xlink="http://www.w3.org/1999/xlink" xmlns="http://www.w3.org/2000/svg">
  <desc>Created with Lunacy</desc>
  <g id="search">
    <path d="M20.7134 19.2452L27.7544 26.2862C28.0109 26.5427 28.0109 26.9575 27.7544 27.214L27.214 27.7544C26.9575 28.0109 26.5427 28.0109 26.2862 27.7544L19.2452 20.7134C19.1251 20.5879 19.0542 20.4242 19.0542 20.2495L19.0542 19.6928C17.0292 21.5595 14.3275 22.7057 11.3528 22.7057C5.08148 22.7057 0 17.6242 0 11.3528C0 5.08148 5.08148 0 11.3528 0C17.6242 0 22.7057 5.08148 22.7057 11.3528C22.7057 14.3275 21.5595 17.0292 19.6873 19.0542L20.2495 19.0542C20.4242 19.0542 20.5879 19.1197 20.7134 19.2452ZM1.74659 11.3528C1.74659 16.6635 6.04211 20.9591 11.3528 20.9591C16.6635 20.9591 20.9591 16.6635 20.9591 11.3528C20.9591 6.04211 16.6635 1.74659 11.3528 1.74659C6.04211 1.74659 1.74659 6.04211 1.74659 11.3528Z" id="Shape" fill="#000000" fill-rule="evenodd" stroke="none" />
  </g>
</svg>