<?xml version="1.0" encoding="utf-8"?>
<svg width="28px" height="28px" viewBox="0 0 28 28" version="1.1" xmlns:xlink="http://www.w3.org/1999/xlink" xmlns="http://www.w3.org/2000/svg">
  <desc>Created with Lunacy</desc>
  <path d="M14 0C9.65234 0 6.125 3.52734 6.125 7.875C6.125 12.2227 9.65234 15.75 14 15.75C18.3477 15.75 21.875 12.2227 21.875 7.875C21.875 3.52734 18.3477 0 14 0ZM20.125 7.875C20.125 4.49531 17.3797 1.75 14 1.75C10.6203 1.75 7.875 4.49531 7.875 7.875C7.875 11.2547 10.6203 14 14 14C17.3797 14 20.125 11.2547 20.125 7.875ZM14 18.375C17.1172 18.375 15.9469 17.5 21 17.5C24.8664 17.5 28 20.6336 28 24.5L28 26.25C28 27.218 27.218 28 26.25 28L1.75 28C0.782031 28 0 27.218 0 26.25L0 24.5C0 20.6336 3.13359 17.5 7 17.5C12.0477 17.5 10.8938 18.375 14 18.375ZM26.25 24.5C26.25 21.607 23.893 19.25 21 19.25C16.3461 19.25 17.3305 20.125 14 20.125C10.6805 20.125 11.6484 19.25 7 19.25C4.10703 19.25 1.75 21.607 1.75 24.5L1.75 26.25L26.25 26.25L26.25 24.5Z" id="Shape" fill="#000000" fill-rule="evenodd" stroke="none" />
</svg>